<svg width="37" height="36" viewBox="0 0 37 36" fill="none" xmlns="http://www.w3.org/2000/svg">
<path d="M31.4717 4.01135L20.2288 12.3616L22.3079 7.43508L31.4717 4.01135Z" fill="#E2761B" stroke="#E2761B" stroke-linecap="round" stroke-linejoin="round"/>
<path d="M5.51701 4.01135L16.6695 12.4407L14.6921 7.43508L5.51701 4.01135ZM27.4266 23.3673L24.4323 27.9549L30.839 29.7176L32.6808 23.469L27.4266 23.3673ZM4.33057 23.469L6.16107 29.7176L12.5679 27.9549L9.5735 23.3673L4.33057 23.469Z" fill="#E4761B" stroke="#E4761B" stroke-linecap="round" stroke-linejoin="round"/>
<path d="M12.2062 15.6158L10.4209 18.3164L16.7825 18.5988L16.5565 11.7627L12.2062 15.6158ZM24.7825 15.6158L20.3757 11.6836L20.2288 18.5988L26.5791 18.3164L24.7825 15.6158ZM12.5678 27.9548L16.387 26.0904L13.0876 23.5141L12.5678 27.9548ZM20.6017 26.0904L24.4322 27.9548L23.9011 23.5141L20.6017 26.0904Z" fill="#E4761B" stroke="#E4761B" stroke-linecap="round" stroke-linejoin="round"/>
<path d="M24.4322 27.9549L20.6016 26.0905L20.9067 28.5876L20.8728 29.6385L24.4322 27.9549ZM12.5677 27.9549L16.1271 29.6385L16.1045 28.5876L16.387 26.0905L12.5677 27.9549Z" fill="#D7C1B3" stroke="#D7C1B3" stroke-linecap="round" stroke-linejoin="round"/>
<path d="M16.1836 21.8644L12.9972 20.9266L15.2458 19.8983L16.1836 21.8644ZM20.8051 21.8644L21.743 19.8983L24.0028 20.9266L20.8051 21.8644Z" fill="#233447" stroke="#233447" stroke-linecap="round" stroke-linejoin="round"/>
<path d="M12.5678 27.9548L13.1102 23.3673L9.57349 23.4689L12.5678 27.9548ZM23.8899 23.3673L24.4322 27.9548L27.4266 23.4689L23.8899 23.3673ZM26.5791 18.3164L20.2289 18.5989L20.8164 21.8644L21.7543 19.8983L24.0142 20.9266L26.5791 18.3164ZM12.9972 20.9266L15.2571 19.8983L16.1837 21.8644L16.7825 18.5989L10.4209 18.3164L12.9972 20.9266Z" fill="#CD6116" stroke="#CD6116" stroke-linecap="round" stroke-linejoin="round"/>
<path d="M10.4209 18.3164L13.0876 23.5141L12.9972 20.9266L10.4209 18.3164ZM24.0141 20.9266L23.9011 23.5141L26.5791 18.3164L24.0141 20.9266ZM16.7825 18.5989L16.1836 21.8644L16.9294 25.7175L17.0989 20.6441L16.7825 18.5989ZM20.2288 18.5989L19.9237 20.6328L20.0593 25.7175L20.8164 21.8644L20.2288 18.5989Z" fill="#E4751F" stroke="#E4751F" stroke-linecap="round" stroke-linejoin="round"/>
<path d="M20.8164 21.8644L20.0593 25.7175L20.6017 26.0904L23.9011 23.5141L24.0141 20.9265L20.8164 21.8644ZM12.9972 20.9265L13.0876 23.5141L16.387 26.0904L16.9294 25.7175L16.1836 21.8644L12.9972 20.9265Z" fill="#F6851B" stroke="#F6851B" stroke-linecap="round" stroke-linejoin="round"/>
<path d="M20.8728 29.6384L20.9067 28.5876L20.6242 28.339H16.3644L16.1045 28.5876L16.1271 29.6384L12.5677 27.9548L13.8107 28.9718L16.3305 30.7232H20.6581L23.1892 28.9718L24.4322 27.9548L20.8728 29.6384Z" fill="#C0AD9E" stroke="#C0AD9E" stroke-linecap="round" stroke-linejoin="round"/>
<path d="M20.6017 26.0904L20.0593 25.7175H16.9293L16.387 26.0904L16.1045 28.5876L16.3644 28.339H20.6243L20.9068 28.5876L20.6017 26.0904Z" fill="#161616" stroke="#161616" stroke-linecap="round" stroke-linejoin="round"/>
<path d="M31.9464 12.904L32.9068 8.29384L31.4718 4.01135L20.6017 12.0791L24.7825 15.6159L30.6921 17.3447L32.0029 15.8193L31.4379 15.4125L32.3418 14.5876L31.6413 14.0453L32.5452 13.356L31.9464 12.904ZM4.09326 8.29384L5.05371 12.904L4.44354 13.356L5.3475 14.0453L4.65823 14.5876L5.56219 15.4125L4.99722 15.8193L6.29665 17.3447L12.2063 15.6159L16.387 12.0791L5.51699 4.01135L4.09326 8.29384Z" fill="#763D16" stroke="#763D16" stroke-linecap="round" stroke-linejoin="round"/>
<path d="M30.6921 17.3447L24.7825 15.6158L26.5792 18.3164L23.9012 23.5142L27.4266 23.469H32.6808L30.6921 17.3447ZM12.2063 15.6158L6.29667 17.3447L4.33057 23.469H9.5735L13.0876 23.5142L10.421 18.3164L12.2063 15.6158ZM20.2289 18.5989L20.6018 12.0791L22.3193 7.43506H14.6921L16.3871 12.0791L16.7825 18.5989L16.9181 20.6554L16.9294 25.7175H20.0594L20.082 20.6554L20.2289 18.5989Z" fill="#F6851B" stroke="#F6851B" stroke-linecap="round" stroke-linejoin="round"/>
</svg>
