<svg width="20" height="20" viewBox="0 0 20 20" fill="none" xmlns="http://www.w3.org/2000/svg">
<path d="M13.9202 3.84488C11.9859 4.8417 9.86368 5.52428 7.62054 5.82547C6.76376 5.9405 5.88902 5.99995 5 5.99995C2.79086 5.99995 1 7.79081 1 9.99995C1 12.0384 2.52477 13.7207 4.49597 13.9685C4.78782 15.1062 5.20979 16.2268 5.76704 17.3098C6.1636 18.0804 7.10902 18.3086 7.81763 17.8995L8.68366 17.3995C9.41014 16.98 9.62418 16.0784 9.27228 15.3782C9.10619 15.0477 8.95684 14.7128 8.82394 14.3746C10.6243 14.7325 12.3353 15.3383 13.9201 16.155C14.6189 14.2347 15 12.1618 15 9.99994C15 7.83806 14.6189 5.7652 13.9202 3.84488Z" fill="currentColor"/>
<path d="M15.2428 3.0965C16.0553 5.24249 16.5 7.56928 16.5 9.99994C16.5 12.4306 16.0553 14.7574 15.2428 16.9034C15.2427 16.9034 15.2428 16.9034 15.2428 16.9034L15.2135 16.9806C15.0652 17.3674 15.2585 17.8011 15.6452 17.9495C16.032 18.0978 16.4657 17.9045 16.6141 17.5178C16.7002 17.2933 16.7825 17.0669 16.8611 16.8388C17.4152 15.2293 17.7791 13.5315 17.9262 11.7728C18.5645 11.4388 19 10.7707 19 9.99995C19 9.22922 18.5645 8.56114 17.9262 8.22709C17.7791 6.46836 17.4152 4.77063 16.8611 3.16108C16.7825 2.93295 16.7002 2.70661 16.6141 2.48213C16.4657 2.09538 16.032 1.9021 15.6452 2.05042C15.2585 2.19875 15.0652 2.63251 15.2135 3.01925L15.2428 3.0965C15.2428 3.09646 15.2427 3.09653 15.2428 3.0965Z" fill="currentColor"/>
</svg>
