<svg width="20" height="20" viewBox="0 0 20 20" fill="none" xmlns="http://www.w3.org/2000/svg">
<path fill-rule="evenodd" clip-rule="evenodd" d="M15.212 2.07893C15.5825 1.89388 16.033 2.04428 16.218 2.41486C17.3587 4.69908 18 7.27568 18 9.99992C18 12.7242 17.3587 15.3008 16.218 17.585C16.033 17.9556 15.5825 18.106 15.212 17.9209C14.8414 17.7359 14.691 17.2854 14.876 16.9149C15.9151 14.834 16.5 12.4864 16.5 9.99992C16.5 7.51347 15.9151 5.16579 14.876 3.08498C14.691 2.7144 14.8414 2.26398 15.212 2.07893ZM4.78803 2.07893C5.15861 2.26398 5.30901 2.7144 5.12397 3.08498C4.08491 5.16579 3.5 7.51347 3.5 9.99992C3.5 12.4864 4.08491 14.834 5.12397 16.9149C5.30901 17.2854 5.15861 17.7359 4.78803 17.9209C4.41745 18.106 3.96703 17.9556 3.78198 17.585C2.64135 15.3008 2 12.7242 2 9.99992C2 7.27568 2.64135 4.69908 3.78198 2.41486C3.96703 2.04428 4.41745 1.89388 4.78803 2.07893ZM7.07277 5.63335C7.86037 5.10829 8.93143 5.43503 9.29184 6.3103L10.1483 8.3902L11.2942 6.61921C11.9758 5.5658 13.3873 5.27343 14.4313 5.96941L14.666 6.12588C15.0107 6.35565 15.1038 6.8213 14.874 7.16595C14.6443 7.51059 14.1786 7.60372 13.834 7.37396L13.5993 7.21748C13.2513 6.98549 12.7808 7.08295 12.5536 7.43408L10.8431 10.0776L12.0952 13.1184L12.834 12.6259C13.1786 12.3961 13.6443 12.4892 13.874 12.8339C14.1038 13.1785 14.0107 13.6442 13.666 13.874L12.9272 14.3665C12.1396 14.8916 11.0686 14.5648 10.7082 13.6895L9.85173 11.6096L8.70579 13.3806C8.02418 14.434 6.61265 14.7264 5.56869 14.0304L5.33397 13.874C4.98933 13.6442 4.8962 13.1785 5.12596 12.8339C5.35573 12.4892 5.82138 12.3961 6.16603 12.6259L6.40074 12.7824C6.74873 13.0143 7.21923 12.9169 7.44644 12.5658L9.15693 9.92227L7.90482 6.88143L7.16603 7.37396C6.82138 7.60372 6.35573 7.51059 6.12596 7.16595C5.8962 6.8213 5.98933 6.35565 6.33397 6.12588L7.07277 5.63335Z" fill="currentColor"/>
</svg>
