<svg width="24" height="24" viewBox="0 0 24 24" fill="none" xmlns="http://www.w3.org/2000/svg">
<path fill-rule="evenodd" clip-rule="evenodd" d="M12 4.25C7.71979 4.25 4.25 7.71979 4.25 12C4.25 16.2802 7.71979 19.75 12 19.75C16.2802 19.75 19.75 16.2802 19.75 12C19.75 7.71979 16.2802 4.25 12 4.25ZM1.75 12C1.75 6.33908 6.33908 1.75 12 1.75C17.6609 1.75 22.25 6.33908 22.25 12C22.25 17.6609 17.6609 22.25 12 22.25C6.33908 22.25 1.75 17.6609 1.75 12ZM11.8661 8.11612C12.3543 7.62796 13.1457 7.62796 13.6339 8.11612L16.6339 11.1161C16.8683 11.3505 17 11.6685 17 12C17 12.3315 16.8683 12.6495 16.6339 12.8839L13.6339 15.8839C13.1457 16.372 12.3543 16.372 11.8661 15.8839C11.378 15.3957 11.378 14.6043 11.8661 14.1161L12.7322 13.25L8.25 13.25C7.55964 13.25 7 12.6904 7 12C7 11.3096 7.55964 10.75 8.25 10.75H12.7322L11.8661 9.88388C11.378 9.39573 11.378 8.60427 11.8661 8.11612Z" fill="currentColor"/>
</svg>
