<svg width="24" height="24" viewBox="0 0 24 24" fill="none" xmlns="http://www.w3.org/2000/svg">
<path fill-rule="evenodd" clip-rule="evenodd" d="M12 2.75C12.9665 2.75 13.75 3.5335 13.75 4.5V10.25H19.5C20.4665 10.25 21.25 11.0335 21.25 12C21.25 12.9665 20.4665 13.75 19.5 13.75H13.75V19.5C13.75 20.4665 12.9665 21.25 12 21.25C11.0335 21.25 10.25 20.4665 10.25 19.5V13.75H4.5C3.5335 13.75 2.75 12.9665 2.75 12C2.75 11.0335 3.5335 10.25 4.5 10.25H10.25V4.5C10.25 3.5335 11.0335 2.75 12 2.75Z" fill="currentColor"/>
</svg>
