<svg width="24" height="24" viewBox="0 0 24 24" fill="none" xmlns="http://www.w3.org/2000/svg">
<path fill-rule="evenodd" clip-rule="evenodd" d="M14.6152 1.59492C14.9164 1.76286 15.0643 2.1146 14.9736 2.44733L12.9819 9.75H20.25C20.5486 9.75 20.8188 9.92718 20.9379 10.2011C21.0569 10.475 21.0021 10.7934 20.7983 11.0117L10.2983 22.2617C10.063 22.5139 9.68603 22.573 9.38479 22.4051C9.08355 22.2371 8.93568 21.8854 9.02643 21.5527L11.0181 14.25H3.75C3.45135 14.25 3.18117 14.0728 3.06214 13.7989C2.94311 13.525 2.99794 13.2066 3.20171 12.9883L13.7017 1.73826C13.937 1.48612 14.314 1.42698 14.6152 1.59492Z" fill="currentColor"/>
</svg>
