<svg width="24" height="24" viewBox="0 0 24 24" fill="none" xmlns="http://www.w3.org/2000/svg">
<path fill-rule="evenodd" clip-rule="evenodd" d="M8.47761 1.6008C8.83615 1.80821 8.95867 2.267 8.75127 2.62555C8.5527 2.96881 8.40711 3.34624 8.3255 3.7471C8.38405 3.80457 8.44395 3.86068 8.50513 3.91537C9.32956 2.90013 10.5885 2.25 12.0002 2.25C13.4129 2.25 14.6728 2.90117 15.4972 3.91782C15.5579 3.86365 15.6173 3.80808 15.6754 3.75117C15.594 3.34879 15.4481 2.96997 15.2488 2.62555C15.0414 2.267 15.1639 1.80821 15.5225 1.6008C15.881 1.39339 16.3398 1.51591 16.5472 1.87446C16.9024 2.48842 17.137 3.18135 17.2183 3.91994C17.2416 4.13185 17.1737 4.34368 17.0314 4.50247C16.7896 4.77241 16.5263 5.02277 16.2442 5.2509C16.41 5.72038 16.5002 6.22519 16.5002 6.75C16.5002 6.95356 16.4866 7.15434 16.4602 7.35141C16.3543 8.14315 15.7073 8.6458 15.0428 8.75426C14.8614 8.78388 14.6791 8.81089 14.4959 8.83526C14.6477 9.06238 14.7692 9.31137 14.8549 9.57652C16.1694 9.41561 17.4498 9.14501 18.6867 8.77423C18.6212 7.88092 18.5053 7.00184 18.3417 6.13978C18.2645 5.73282 18.5319 5.34034 18.9388 5.26314C19.3458 5.18595 19.7383 5.45327 19.8155 5.86022C20.0269 6.97505 20.1636 8.11609 20.2201 9.27786C20.2365 9.61528 20.0253 9.92203 19.7043 10.0271C18.1774 10.5268 16.5854 10.882 14.9444 11.0766C14.8703 11.4573 14.7242 11.8123 14.5208 12.1269C16.5869 12.336 18.5788 12.7993 20.464 13.4853C20.7756 13.5987 20.9758 13.9033 20.9562 14.2344C20.8278 16.4041 20.4197 18.4994 19.7674 20.4842C19.638 20.8777 19.2142 21.0918 18.8207 20.9625C18.4272 20.8332 18.213 20.4093 18.3424 20.0158C18.8983 18.3245 19.2654 16.5472 19.4187 14.7085C18.9182 14.5401 18.4101 14.3883 17.895 14.2537C17.9627 14.4883 17.9993 14.738 17.9993 15C17.9993 18.9558 15.4775 22.5 11.9993 22.5C8.52107 22.5 5.99927 18.9558 5.99927 15C5.99927 14.7382 6.03583 14.4886 6.10347 14.2541C5.58887 14.3886 5.08126 14.5403 4.58127 14.7085C4.73456 16.5472 5.10171 18.3245 5.65762 20.0158C5.78696 20.4093 5.57281 20.8332 5.17931 20.9625C4.78581 21.0918 4.36196 20.8777 4.23262 20.4842C3.58025 18.4994 3.1722 16.4041 3.04379 14.2344C3.0242 13.9033 3.22436 13.5987 3.53601 13.4853C5.12187 12.9082 6.78301 12.4887 8.50041 12.2456C8.50367 12.2451 8.50693 12.2446 8.51019 12.2442C8.83114 12.1989 9.15403 12.1597 9.47875 12.1269C9.27537 11.8123 9.12925 11.4573 9.05514 11.0766C7.41419 10.882 5.82213 10.5268 4.29528 10.0271C3.97422 9.92203 3.76303 9.61528 3.77945 9.27786C3.83597 8.11609 3.97264 6.97505 4.18411 5.86023C4.26131 5.45327 4.65379 5.18595 5.06075 5.26314C5.46771 5.34034 5.73503 5.73282 5.65783 6.13978C5.49431 7.00184 5.37835 7.88092 5.31283 8.77423C6.54976 9.14502 7.83016 9.41561 9.14472 9.57653C9.23045 9.31134 9.35208 9.06232 9.50388 8.8352C9.32091 8.81085 9.13877 8.78386 8.95748 8.75426C8.29302 8.6458 7.646 8.14315 7.54008 7.35141C7.51372 7.15434 7.50015 6.95356 7.50015 6.75C7.50015 6.22408 7.59067 5.71823 7.75717 5.24791C7.47454 5.01902 7.21082 4.76779 6.96867 4.49691C6.82659 4.33796 6.75886 4.12606 6.78243 3.91417C6.86432 3.17773 7.09863 2.48682 7.45286 1.87446C7.66027 1.51591 8.11906 1.39339 8.47761 1.6008Z" fill="currentColor"/>
</svg>
