<svg width="24" height="24" viewBox="0 0 24 24" fill="none" xmlns="http://www.w3.org/2000/svg">
<path fill-rule="evenodd" clip-rule="evenodd" d="M11.0974 1.51456C11.5035 1.5958 11.767 1.99092 11.6857 2.39709L10.6651 7.5H15.1351L16.2146 2.10291C16.2958 1.69674 16.6909 1.43333 17.0971 1.51456C17.5033 1.5958 17.7667 1.99092 17.6854 2.39709L16.6649 7.5H20.25C20.6642 7.5 21 7.83579 21 8.25C21 8.66421 20.6642 9 20.25 9H16.3649L15.1649 15H18.75C19.1642 15 19.5 15.3358 19.5 15.75C19.5 16.1642 19.1642 16.5 18.75 16.5H14.8649L13.7854 21.8971C13.7042 22.3033 13.3091 22.5667 12.9029 22.4854C12.4967 22.4042 12.2333 22.0091 12.3146 21.6029L13.3351 16.5H8.86515L7.78573 21.8971C7.70449 22.3033 7.30938 22.5667 6.90321 22.4854C6.49704 22.4042 6.23362 22.0091 6.31486 21.6029L7.33544 16.5H3.75C3.33579 16.5 3 16.1642 3 15.75C3 15.3358 3.33579 15 3.75 15H7.63544L8.83544 9H5.25C4.83579 9 4.5 8.66421 4.5 8.25C4.5 7.83579 4.83579 7.5 5.25 7.5H9.13544L10.2149 2.10291C10.2961 1.69674 10.6912 1.43333 11.0974 1.51456ZM10.3651 9L9.16515 15H13.6351L14.8351 9H10.3651Z" fill="currentColor"/>
</svg>
