<svg width="24" height="24" viewBox="0 0 24 24" fill="none" xmlns="http://www.w3.org/2000/svg">
<path d="M16.8812 4.34537C14.81 5.17395 12.5917 5.71314 10.276 5.91296C9.60847 5.97055 8.93276 5.99996 8.25 5.99996H7.5C4.60051 5.99996 2.25 8.35046 2.25 11.25C2.25 13.8496 4.13945 16.0079 6.61997 16.4265C6.95424 17.7955 7.41805 19.1137 7.99764 20.3674C8.46171 21.3711 9.67181 21.6874 10.5803 21.1629L11.2366 20.784C12.1167 20.2759 12.4023 19.1913 12.0087 18.3158C11.7738 17.7935 11.5642 17.2573 11.3814 16.7089C13.2988 16.967 15.1419 17.4587 16.8812 18.1545C17.6069 15.9852 18 13.6635 18 11.2499C18 8.83642 17.6069 6.51472 16.8812 4.34537Z" fill="currentColor"/>
<path d="M18.2606 3.74066C19.0641 6.09636 19.5 8.62224 19.5 11.2499C19.5 13.8776 19.0641 16.4035 18.2606 18.7593C18.2054 18.921 18.1487 19.082 18.0901 19.2422C17.9477 19.6311 18.1476 20.0619 18.5366 20.2043C18.9256 20.3466 19.3563 20.1467 19.4987 19.7578C19.6387 19.3753 19.7696 18.9883 19.891 18.5972C20.4147 16.9105 20.7627 15.1468 20.914 13.3277C21.431 12.7893 21.75 12.0566 21.75 11.25C21.75 10.4433 21.431 9.71067 20.914 9.17222C20.7627 7.35313 20.4147 5.58942 19.891 3.90268C19.7696 3.51159 19.6387 3.12466 19.4987 2.74215C19.3563 2.35318 18.9256 2.15328 18.5366 2.29566C18.1476 2.43804 17.9477 2.86879 18.0901 3.25777C18.1487 3.41789 18.2055 3.57891 18.2606 3.74066Z" fill="currentColor"/>
</svg>
