<svg width="37" height="36" viewBox="0 0 37 36" fill="none" xmlns="http://www.w3.org/2000/svg">
<path d="M18.5 34.875C27.8198 34.875 35.375 27.3198 35.375 18C35.375 8.68019 27.8198 1.125 18.5 1.125C9.18019 1.125 1.625 8.68019 1.625 18C1.625 27.3198 9.18019 34.875 18.5 34.875Z" fill="#3396FF" stroke="#66B1FF"/>
<path d="M11.946 13.6832C15.5656 10.1535 21.4342 10.1535 25.0537 13.6832L25.4893 14.108C25.6703 14.2844 25.6703 14.5706 25.4893 14.747L23.9992 16.2002C23.9087 16.2884 23.762 16.2884 23.6715 16.2002L23.072 15.6156C20.5469 13.1532 16.4529 13.1532 13.9277 15.6156L13.2857 16.2417C13.1952 16.3299 13.0485 16.3299 12.958 16.2417L11.4678 14.7885C11.2868 14.612 11.2868 14.3259 11.4678 14.1494L11.946 13.6832ZM28.1356 16.6884L29.4618 17.9818C29.6429 18.1582 29.6429 18.4444 29.4618 18.6208L23.4816 24.4525C23.3006 24.6291 23.0072 24.6291 22.8262 24.4525L18.5818 20.3136C18.5366 20.2695 18.4632 20.2695 18.418 20.3136L14.1736 24.4525C13.9927 24.6291 13.6992 24.6291 13.5182 24.4525L7.53784 18.6207C7.35685 18.4443 7.35685 18.1581 7.53784 17.9817L8.86411 16.6884C9.04509 16.5119 9.33851 16.5119 9.51949 16.6884L13.7639 20.8273C13.8092 20.8715 13.8825 20.8715 13.9278 20.8273L18.1721 16.6884C18.353 16.5118 18.6464 16.5118 18.8275 16.6884L23.0719 20.8273C23.1172 20.8715 23.1905 20.8715 23.2358 20.8273L27.4802 16.6884C27.6612 16.5119 27.9546 16.5119 28.1356 16.6884Z" fill="white"/>
</svg>
