<svg xmlns="http://www.w3.org/2000/svg" width="72" height="72" viewBox="0 0 72 72" fill="none">
  <path d="M5.625 36C5.625 19.2244 19.2835 5.625 36.1321 5.625C52.9697 5.625 65.9788 18.9716 66.375 35.8685C66.375 41.2597 64.5261 45.7963 59.9038 50.0698C55.9978 53.6811 49.3386 54.2118 44.4526 51.5162C40.9652 49.5133 38.2776 45.2474 36 42.1144L31.7739 48.5576H22.6614L31.2457 35.8681L22.9256 23.3766H32.3022L36.066 29.8198L39.7639 23.3766H49.2065L40.6223 35.8685C40.6223 35.8685 44.7163 42.1144 46.9614 44.5471C49.2065 46.9797 53.3006 47.0455 55.9419 44.4156C58.8459 41.5241 59.496 39.2218 59.5076 35.8685C59.5529 22.8893 49.1988 12.4627 36.1321 12.4627C23.0762 12.4627 12.4924 23.0007 12.4924 36C12.4924 48.9993 23.0762 59.5373 36.1321 59.5373C37.9379 59.5373 39.6689 59.3863 41.3487 59.0114L42.8014 65.6518C40.4112 66.1854 38.4799 66.375 36.1321 66.375C19.2835 66.375 5.625 52.7757 5.625 36Z" fill="#FC4F37"/>
</svg>
